<svg width="512" height="512" xmlns="http://www.w3.org/2000/svg">

 <g>
  <title>background</title>
  <rect fill="none" id="canvas_background" height="402" width="582" y="-1" x="-1"/>
 </g>
 <g>
  <title>Layer 1</title>
  <circle fill="#ff0000" id="svg_1" r="256" cy="256" cx="256" class="cls-1"/>
  <path fill="#000000" id="svg_2" d="m418.87,267.54c-1.47,6.44 -2.58,10.64 -2.61,10.83q-5,0.63 -9.83,1.08c-83.82,8 -113.91,-20.18 -123.31,-31a89.64,89.64 0 0 1 -5.6,-7.18a305.92,305.92 0 0 1 40,-15c16.67,-5.06 29.16,-7.64 29.16,-7.64c-1.85,-0.27 -37.66,-11.57 -77.6,-6.47c-2.31,0.3 -4.88,0.68 -7.63,1.15l0,0c-6.05,-12.33 -11.92,-26 -17.64,-39.82c-1.57,-3.93 -3.81,-9.46 -6.57,-16.06c-7.28,-17.38 -13.94,-32.77 -17.48,-39.54c-18.4,-35.27 -40.36,-67.79 -40.36,-67.79l0.94,0.22c46.87,11.17 109.9,32.84 160.47,61.88l16.19,9.8c8,5.16 15.56,10.51 22.53,16l10,8.46c21.49,19.32 35.57,40.67 37,63.44c0.99,16.8 -4.3,43 -7.66,57.64z" class="cls-2"/>
  <path fill="#ffffff" id="svg_3" d="m420.39,277.41c-43.1,-137.61 -172.06,-187.13 -195.23,-191.91c-1.69,-0.35 -6.24,-1.25 -7,0.28c-3.1,5.93 57.46,33.31 107,80.83c18.87,18.13 64.68,62.12 81.7,128.75c15.8,61.85 1.62,123 8.05,123.79c2.75,0.33 6.21,-10.85 7.42,-14.86c18.56,-61.42 -1.94,-126.88 -1.94,-126.88z" class="cls-3"/>
  <path fill="#000000" id="svg_4" d="m280.39,325.24c-0.09,2.57 -0.28,6.52 -0.68,11.33c-3.09,36.75 -13.32,58.58 -17.13,66.08c-6.66,13.12 -12.14,19.12 -19.42,21.8a31.58,31.58 0 0 1 -10.84,1.92l-105.84,0a31.52,31.52 0 0 1 -10.83,-1.92c-7.29,-2.68 -12.77,-8.68 -19.42,-21.8c-3.81,-7.5 -14,-29.33 -17.13,-66.08c-0.4,-4.81 -0.59,-8.76 -0.69,-11.33l201.98,0z" class="cls-3"/>
  <path fill="#000000" id="svg_5" d="m280.39,325.24l-202,0c0,-23.85 22.6,-44.51 55.56,-54.57a161.77,161.77 0 0 1 90.86,0c32.98,10.06 55.58,30.72 55.58,54.57z" class="cls-3"/>
  <path fill="#e5e5e5" id="svg_6" d="m262.54,328.78c-0.08,2.12 -0.23,5.37 -0.56,9.32c-2.54,30.26 -11,48.24 -14.1,54.41c-5.48,10.8 -10,15.74 -16,17.95a26,26 0 0 1 -8.88,1.54l-87.16,0a26,26 0 0 1 -8.92,-1.58c-6,-2.21 -10.51,-7.15 -16,-17.95c-3.14,-6.17 -11.56,-24.15 -14.1,-54.41c-0.34,-4 -0.49,-7.2 -0.57,-9.32l166.29,0.04z" class="cls-2"/>
  <path fill="#ffffff" id="svg_7" d="m262.54,328.78l-166.28,0a32.23,32.23 0 0 1 3.48,-14.43l159.32,0a32.23,32.23 0 0 1 3.48,14.43z" class="cls-2"/>
  <path fill="#ffffff" id="svg_8" d="m224.9,252.52l0,16.93a9.76,9.76 0 0 1 -0.07,1.22a10.56,10.56 0 0 1 -10.5,9.35l-69.86,0a10.57,10.57 0 0 1 -10.5,-9.35a12.12,12.12 0 0 1 -0.07,-1.22l0,-16.93a10.58,10.58 0 0 1 10.57,-10.58l69.86,0a10.58,10.58 0 0 1 10.57,10.58z" class="cls-3"/>
 </g>
</svg>