<svg width="64" height="64" xmlns="http://www.w3.org/2000/svg">

 <g>
  <title>background</title>
  <rect fill="none" id="canvas_background" height="402" width="582" y="-1" x="-1"/>
 </g>
 <g>
  <title>Layer 1</title>
  <path fill="#999999" id="svg_2" d="m62,1l-60,0c-0.553,0 -1,0.448 -1,1l0,48c0,0.552 0.447,1 1,1l11,0c0.553,0 1,-0.448 1,-1s-0.447,-1 -1,-1l-10,0l0,-38l58,0l0,38l-7,0l0,-30c0,-3.309 -2.691,-6 -6,-6s-6,2.691 -6,6l0,30l-5,0c-0.553,0 -1,0.448 -1,1s0.447,1 1,1l5,0l0,3c0,0.119 0.028,0.234 0.07,0.344c0.012,0.033 0.026,0.062 0.042,0.093c0.015,0.03 0.023,0.063 0.041,0.092l5,8c0.182,0.293 0.502,0.471 0.847,0.471s0.665,-0.178 0.848,-0.47l5,-8c0.018,-0.029 0.026,-0.062 0.041,-0.092c0.015,-0.031 0.03,-0.061 0.042,-0.094c0.041,-0.11 0.069,-0.225 0.069,-0.344l0,-3l8,0c0.553,0 1,-0.448 1,-1l0,-48c0,-0.552 -0.447,-1 -1,-1zm-13,52l0,-25l3,0l0,25l-3,0zm-5,0l0,-25l3,0l0,25l-3,0zm8,-27l-8,0l0,-2l8,0l0,2zm-4,-11c2.206,0 4,1.794 4,4l0,3l-8,0l0,-3c0,-2.206 1.794,-4 4,-4zm0,45.113l-3.196,-5.113l6.392,0l-3.196,5.113zm-45,-51.113l0,-6l58,0l0,6l-58,0z"/>
  <path id="svg_4" fill="#e5e5e5" d="m38,34l-28,0c-0.553,0 -1,-0.447 -1,-1l0,-16c0,-0.553 0.447,-1 1,-1l28,0c0.553,0 1,0.447 1,1l0,16c0,0.553 -0.447,1 -1,1z"/>
  <circle fill="#cccccc" id="svg_6" r="1" cy="6" cx="7"/>
  <circle fill="#cccccc" id="svg_8" r="1" cy="6" cx="11"/>
  <circle fill="#cccccc" id="svg_10" r="1" cy="6" cx="15"/>
  <circle fill="#cccccc" id="svg_12" r="1" cy="29" cx="17"/>
  <circle fill="#cccccc" id="svg_14" r="1" cy="29" cx="24"/>
  <circle fill="#cccccc" id="svg_16" r="1" cy="29" cx="31"/>
  <path fill="#999999" id="svg_18" d="m34,22l-20,0c-0.553,0 -1,-0.448 -1,-1s0.447,-1 1,-1l20,0c0.553,0 1,0.448 1,1s-0.447,1 -1,1z"/>
  <path fill="#999999" id="svg_20" d="m34,26l-20,0c-0.553,0 -1,-0.448 -1,-1s0.447,-1 1,-1l20,0c0.553,0 1,0.448 1,1s-0.447,1 -1,1z"/>
  <path fill="#999999" id="svg_24" d="m25,57c-3.859,0 -7,-3.14 -7,-7s3.141,-7 7,-7s7,3.14 7,7s-3.141,7 -7,7zm0,-12c-2.757,0 -5,2.243 -5,5s2.243,5 5,5s5,-2.243 5,-5s-2.243,-5 -5,-5z"/>
 </g>
</svg>