<svg width="158.52" height="155.03" xmlns="http://www.w3.org/2000/svg">

 <title/>
 <g>
  <title>background</title>
  <rect fill="none" id="canvas_background" height="402" width="582" y="-1" x="-1"/>
 </g>
 <g>
  <title>Layer 1</title>
  <path fill="#cccccc" id="svg_5" d="m119.46,20.187204a18.86,18.86 0 0 0 -13.54,5.7a19,19 0 0 0 -32.5,13.3c0,24 32.5,40.6 32.5,40.6s32.5,-16.6 32.5,-40.6a19,19 0 0 0 -18.96,-19z" class="cls-4"/>
  <path fill="#999999" id="svg_6" d="m139.4,38.31c-2.16,-7.23 -7.38,-13.85 -14.54,-16.55a20.18,20.18 0 0 0 -11.19,-1a22,22 0 0 0 -5.46,1.9a22.78,22.78 0 0 0 -2.48,1.47c-0.53,0.36 -1,0.74 -1.54,1.14c-0.46,0.8 -0.92,0.83 -1.39,0.07c-1.46,-0.54 -2.91,-2.05 -4.36,-2.78a26.58,26.58 0 0 0 -5,-1.91a22.56,22.56 0 0 0 -7,-0.69a19.2,19.2 0 0 0 -15,8.73c-3.5,5.22 -4.44,11.17 -4.14,17.31c0.4,7 3.67,13.14 7.82,18.73a67.88,67.88 0 0 0 17.35,16.27c3,1.94 6.53,4.58 9.93,5.61c2.8,0.85 6.3,-2.52 8.53,-4c7.83,-5.09 15.27,-11.12 20.9,-18.63c5.04,-6.69 10.11,-17.04 7.57,-25.67zm-4.62,5.75c-0.73,13.54 -12.31,24.78 -22.35,32.6c-1.3,1 -2.63,2 -4,2.92s-3.12,2.62 -4.59,2.93c-2.14,0.49 -6.84,-3.51 -8.67,-4.77a65.7,65.7 0 0 1 -15,-13.95c-7.4,-9.67 -13.36,-26.47 -1.3,-34.91a18.74,18.74 0 0 1 15.27,-3.07c3.29,0.85 5,2.67 7.68,4.45s4.21,-1.08 6.35,-2.46c6.26,-4 14.06,-3.31 19.94,1.11c4.96,3.73 6.83,9.14 6.67,15.15z"/>
  <path fill="#7f7f7f" id="svg_7" d="m139.87,116.81a12,12 0 0 0 -8.11,-7.57c-0.64,-0.18 -2.39,-0.11 -2.82,-0.42s-0.46,-1.33 -0.67,-2a10.69,10.69 0 0 0 -3.08,-4.86c-2.43,-2.21 -5.37,-2.74 -8.53,-2.61c-3.4,0.13 -6.81,0 -10.21,-0.09c-2.26,-0.08 -4.52,-0.18 -6.78,-0.27a21.6,21.6 0 0 1 -3.12,-0.12c-1.43,-0.27 -1.2,-0.73 -1.91,-2a21.43,21.43 0 0 0 -4.06,-4.75l-5.82,-5.83c-4.88,-4.93 -9.76,-9.81 -14.66,-14.67c-5.1,-5.1 -10.3,-8.53 -17.82,-8.62c-8.87,-0.08 -17.63,-0.91 -26.52,-0.67c-2.67,0.08 -7.52,-0.76 -7.84,3a33.67,33.67 0 0 0 0.22,4.37c0.17,3.43 0.34,6.85 0.43,10.28c0.14,5.41 0.1,10.78 -0.25,16.19c-0.16,2.5 -0.35,5 -0.4,7.5c-0.05,2.28 -0.9,8.31 1.36,9.8c1.46,1 3.67,-0.43 5.09,-0.93c2.1,-0.74 4.25,-1.26 6.4,-1.81a10.78,10.78 0 0 1 2.54,-0.65c1.62,0.08 4.09,2.09 5.52,2.87c1.92,1 3.84,2.12 5.75,3.18c7.74,4.29 15.37,8.76 23.11,13.05c6.42,3.56 13.16,3 20.23,2.95c8.57,0 17.15,0.15 25.72,0.43c7.51,0.25 18.27,2.46 23.83,-3.87a12.15,12.15 0 0 0 2.4,-11.88zm-26.64,-13c4.45,0.14 9.72,-0.48 10.88,5.27a67.07,67.07 0 0 1 -9.51,-0.06a135,135 0 0 0 -20.51,-0.23a11.67,11.67 0 0 0 1.68,-3.79c0.22,-1 0,-1.24 0.8,-1.6s2,0.06 2.8,0.08c1.91,0 3.82,0.12 5.74,0.16l8.12,0.17zm22.22,18.9c-2.4,7.6 -13.42,5.3 -19.61,5.12c-9.57,-0.27 -19.14,-0.49 -28.71,-0.51c-3.34,0 -6.89,0.24 -10.18,-0.31c-3.57,-0.59 -6.52,-2.18 -9.65,-3.84c-4.84,-2.58 -9.69,-5.13 -14.53,-7.7c-3.6,-1.91 -7.17,-3.87 -10.74,-5.82c-2.5,-1.36 -6.1,-4.3 -9.05,-4c-3.39,0.3 -7.46,1.83 -10.62,3c-0.37,-5.72 0.39,-11.45 0.7,-17.15c0.21,-3.92 0.11,-7.84 0.05,-11.76c-0.07,-4.18 -0.27,-8.35 -0.43,-12.52c7.85,-0.27 15.6,0 23.44,0.3c6.88,0.29 13,0 18.29,5.09c3.72,3.59 7.3,7.35 10.94,11q6.24,6.3 12.45,12.61a11.35,11.35 0 0 1 2.87,3.63a7.3,7.3 0 0 1 -3,8.66c-4.49,2.63 -7.95,-0.72 -10.88,-3.75c-6.44,-6.76 -12.98,-13.43 -19.79,-19.82a20.44,20.44 0 0 0 -2.82,-2.61c-2.41,-1.5 -4.28,1 -2.69,3.08c1.86,2.45 4.51,4.59 6.72,6.73q6.06,6.08 12.1,12.15c1.73,1.74 3.44,3.51 5.2,5.23a14.15,14.15 0 0 0 5.18,3.48c2.57,0.9 4.74,0.45 7.33,0.3c6.86,-0.39 13.85,0.25 20.73,0.24c5,0 10,-0.1 15,-0.24c2.39,-0.07 5.09,-0.5 7.34,0.42a7.5,7.5 0 0 1 4.36,8.94l0,0.05z"/>
 </g>
</svg>