<svg width="1024" height="1024" xmlns="http://www.w3.org/2000/svg">

 <g>
  <title>background</title>
  <rect fill="none" id="canvas_background" height="402" width="582" y="-1" x="-1"/>
 </g>
 <g>
  <title>Layer 1</title>
  <path fill="#ffffff" id="XMLID_355_" d="m299.6,289.8c0,-117.1 95.3,-212.4 212.4,-212.4c117.1,0 212.4,95.3 212.4,212.4c0,117.1 -95.3,212.4 -212.4,212.4c-117.1,0 -212.4,-95.3 -212.4,-212.4z"/>
  <path fill="#ffffff" id="XMLID_356_" d="m881.2,755.6l0,159.2c0,17.6 -14.3,31.9 -31.9,31.9l-674.6,0c-17.6,0 -31.9,-14.3 -31.9,-31.9l0,-159.2c0,-59.3 23.1,-115.1 65,-157.1c42,-42 97.7,-65.1 157.1,-65.2l4,0l3.5,2c42.3,24.1 90.6,36.9 139.6,36.9c49,0 97.3,-12.8 139.6,-36.9l3.5,-2l4,0c59.3,0 115.1,23.2 157.1,65.2c41.9,42 65,97.8 65,157.1z"/>
 </g>
</svg>