<?xml version="1.0" ?><svg id="Layer_1" style="enable-background:new 0 0 64 64;" version="1.1" viewBox="0 0 64 64" xml:space="preserve" xmlns="http://www.w3.org/2000/svg" xmlns:xlink="http://www.w3.org/1999/xlink"><style type="text/css">
	.st0{fill:#56AAFF;}
	.st1{fill:#D9DCE1;}
	.st2{fill:#0478ED;}
	.st3{fill:none;stroke:#FFFFFF;stroke-width:2;stroke-miterlimit:10;}
	.st4{fill:none;stroke:#56AAFF;stroke-width:2;stroke-miterlimit:10;}
	.st5{fill:none;stroke:#FFFFFF;stroke-width:3;stroke-linecap:square;stroke-miterlimit:10;}
	.st6{fill:none;stroke:#0478ED;stroke-width:3;stroke-miterlimit:10;}
	.st7{fill:#FFFFFF;}
	.st8{fill:none;stroke:#0478ED;stroke-width:2;stroke-linecap:round;stroke-miterlimit:10;}
	.st9{fill:none;stroke:#56AAFF;stroke-width:2;stroke-linecap:square;stroke-miterlimit:10;}
	.st10{fill:none;stroke:#56AAFF;stroke-width:3;stroke-miterlimit:10;}
	.st11{fill:none;stroke:#0478ED;stroke-width:2;stroke-miterlimit:10;}
	.st12{fill:none;stroke:#56AAFF;stroke-width:9.9179;stroke-linecap:round;stroke-miterlimit:10;}
	.st13{fill:none;stroke:#D9DCE1;stroke-width:2;stroke-miterlimit:10;}
	.st14{fill:none;stroke:#56AAFF;stroke-width:5;stroke-miterlimit:10;}
	.st15{fill-rule:evenodd;clip-rule:evenodd;fill:#56AAFF;}
	.st16{fill:none;stroke:#56AAFF;stroke-width:4;stroke-linecap:square;stroke-miterlimit:10;}
	.st17{fill:none;stroke:#0478ED;stroke-width:3;stroke-linecap:square;stroke-miterlimit:10;}
	.st18{fill:none;stroke:#D9DCE1;stroke-width:4;stroke-miterlimit:10;}
	.st19{opacity:0.4;fill:#0478ED;}
	.st20{opacity:0.2;fill:#0478ED;}
	.st21{opacity:0.2;fill:#FFFFFF;}
	.st22{fill-rule:evenodd;clip-rule:evenodd;fill:#D9DCE1;}
	.st23{fill:none;stroke:#FFFFFF;stroke-width:6;stroke-miterlimit:10;}
	.st24{fill:none;stroke:#D9DCE1;stroke-width:6;stroke-miterlimit:10;}
	.st25{fill:none;stroke:#0478ED;stroke-width:3;stroke-linecap:round;stroke-linejoin:round;stroke-miterlimit:10;}
	.st26{fill:none;stroke:#0478ED;stroke-width:2;stroke-miterlimit:10;stroke-dasharray:2,2;}
	.st27{fill:none;stroke:#FFFFFF;stroke-width:4;stroke-miterlimit:10;}
	.st28{fill:none;stroke:#D9DCE1;stroke-width:4;stroke-linecap:round;stroke-linejoin:round;stroke-miterlimit:10;}
	.st29{fill:none;stroke:#0478ED;stroke-width:3;stroke-linecap:round;stroke-miterlimit:10;}
	.st30{fill:#4A4A70;}
	.st31{fill-rule:evenodd;clip-rule:evenodd;fill:#0478ED;}
	.st32{fill:none;stroke:#FFFFFF;stroke-width:2;stroke-linecap:square;stroke-miterlimit:10;}
	.st33{fill:none;stroke:#FFFFFF;stroke-width:2;stroke-linecap:round;stroke-miterlimit:10;}
	.st34{fill:none;stroke:#FFFFFF;stroke-width:2;stroke-linecap:round;stroke-linejoin:round;stroke-miterlimit:10;}
	.st35{fill:none;stroke:#56AAFF;stroke-width:4;stroke-linecap:round;stroke-linejoin:round;stroke-miterlimit:10;}
	.st36{fill:none;stroke:#FFFFFF;stroke-width:6;stroke-linecap:square;stroke-miterlimit:10;}
	.st37{fill:none;stroke:#FFFFFF;stroke-width:4;stroke-linecap:square;stroke-miterlimit:10;}
	.st38{fill:none;stroke:#0478ED;stroke-width:2;stroke-linecap:square;stroke-miterlimit:10;}
	.st39{fill:none;stroke:#FFFFFF;stroke-width:3;stroke-miterlimit:10;}
	.st40{fill:none;stroke:#FFFFFF;stroke-width:1.8022;stroke-linecap:square;stroke-miterlimit:10;}
	.st41{fill:none;stroke:#56AAFF;stroke-width:4;stroke-miterlimit:10;}
	.st42{fill:none;stroke:#FFFFFF;stroke-width:4;stroke-linecap:round;stroke-miterlimit:10;}
	.st43{fill:none;stroke:#0478ED;stroke-width:6;stroke-linecap:round;stroke-miterlimit:10;}
	.st44{fill:none;stroke:#56AAFF;stroke-width:3.7712;stroke-miterlimit:10;}
	.st45{fill:none;stroke:#D9DCE1;stroke-width:5;stroke-miterlimit:10;}
	.st46{fill:none;stroke:#D9DCE1;stroke-width:3;stroke-miterlimit:10;}
	.st47{fill-rule:evenodd;clip-rule:evenodd;fill:none;stroke:#D9DCE1;stroke-width:3;stroke-miterlimit:10;}
	.st48{fill:none;stroke:#FFFFFF;stroke-width:1.9258;stroke-linecap:square;stroke-miterlimit:10;}
</style><circle class="st1" cx="47" cy="29.722" r="6"/><path class="st1" d="M57,48c0,0,0-1.579-0.009-3.256c-0.005-1.012-0.221-2.032-0.741-2.9C54.609,39.101,51.086,38,47,38  s-7.609,1.101-9.25,3.843c-0.52,0.869-0.736,1.888-0.741,2.9C37,46.421,37,48,37,48H57z"/><circle class="st1" cx="17" cy="29.722" r="6"/><path class="st1" d="M27,48c0,0,0-1.579-0.009-3.256c-0.005-1.012-0.221-2.032-0.741-2.9C24.609,39.101,21.086,38,17,38  s-7.609,1.101-9.25,3.843c-0.52,0.869-0.736,1.888-0.741,2.9C7,46.421,7,48,7,48H27z"/><circle class="st0" cx="31.965" cy="24.151" r="7.868"/><path class="st0" d="M45.078,48c0,0,0-2.048-0.011-4.234c-0.008-1.507-0.389-3.015-1.24-4.258c-2.253-3.29-6.717-4.621-11.862-4.621  s-9.609,1.331-11.862,4.621c-0.851,1.243-1.232,2.751-1.24,4.258C18.851,45.952,18.851,48,18.851,48H45.078z"/></svg>