<?xml version="1.0" ?><svg id="Layer_2" style="enable-background:new 0 0 64 64;" version="1.1" viewBox="0 0 64 64" xml:space="preserve" xmlns="http://www.w3.org/2000/svg" xmlns:xlink="http://www.w3.org/1999/xlink"><style type="text/css">
	.st0{fill:#6E83B7;}
	.st1{fill:#E0E2FF;}
	.st2{fill:#80D6FB;}
	.st3{fill:#9BA7AF;}
	.st4{fill:#72818B;}
	.st5{fill:#FFE352;}
	.st6{fill:#AEEEFF;}
	.st7{fill:#46BEE8;}
	.st8{fill:#FFD3B3;}
	.st9{fill:#FCB98B;}
	.st10{fill:#FFB0AA;}
	.st11{fill:#EDEFF1;}
	.st12{fill:#466089;}
	.st13{fill:#8FA5D1;}
	.st14{fill:#98CA69;}
	.st15{fill:none;stroke:#75AA40;stroke-miterlimit:10;}
	.st16{fill:none;stroke:#FFB236;stroke-miterlimit:10;}
	.st17{fill:none;stroke:#FF7B7B;stroke-miterlimit:10;}
	.st18{fill:none;stroke:#FF7B7B;stroke-width:2;stroke-linecap:round;stroke-miterlimit:10;}
	.st19{fill:#FF7B7B;}
	.st20{fill:none;stroke:#75AA40;stroke-width:2;stroke-linecap:round;stroke-miterlimit:10;}
	.st21{fill:#75AA40;}
	.st22{fill:#D3D3D3;}
	.st23{fill:#4AC64A;}
	.st24{fill:#FFB236;}
	.st25{fill:none;stroke:#D3D3D3;stroke-width:2;stroke-miterlimit:10;}
	.st26{fill:none;stroke:#46BEE8;stroke-width:2;stroke-miterlimit:10;}
	.st27{opacity:0.99;}
	.st28{fill:none;stroke:#FF7B7B;stroke-width:2;stroke-linecap:round;stroke-linejoin:round;stroke-miterlimit:10;}
	.st29{fill:none;stroke:#75AA40;stroke-width:2;stroke-linecap:round;stroke-linejoin:round;stroke-miterlimit:10;}
	.st30{fill:none;stroke:#46BEE8;stroke-width:2;stroke-linecap:round;stroke-linejoin:round;stroke-miterlimit:10;}
	.st31{fill:none;stroke:#6E83B7;stroke-width:2;stroke-linejoin:round;stroke-miterlimit:10;}
	.st32{fill:none;stroke:#46BEE8;stroke-width:2;stroke-linecap:round;stroke-miterlimit:10;}
	.st33{fill:none;stroke:#75AA40;stroke-width:4;stroke-linecap:round;stroke-linejoin:round;stroke-miterlimit:10;}
	.st34{fill:none;stroke:#6E83B7;stroke-width:2;stroke-linecap:round;stroke-linejoin:round;stroke-miterlimit:10;}
	.st35{fill:none;stroke:#FFB236;stroke-width:2;stroke-linecap:round;stroke-miterlimit:10;}
	.st36{fill:none;stroke:#FF7B7B;stroke-width:2;stroke-miterlimit:10;}
	.st37{fill:none;stroke:#6E83B7;stroke-linecap:round;stroke-linejoin:round;stroke-miterlimit:10;}
	.st38{fill:none;stroke:#FF7B7B;stroke-linecap:round;stroke-miterlimit:10;}
	.st39{fill:none;stroke:#75AA40;stroke-linecap:round;stroke-miterlimit:10;}
	.st40{fill:none;stroke:#FFB236;stroke-linecap:round;stroke-miterlimit:10;}
	.st41{fill:none;stroke:#FFE352;stroke-width:2;stroke-linecap:round;stroke-miterlimit:10;}
	.st42{fill:none;stroke:#6E83B7;stroke-width:2;stroke-miterlimit:10;}
	.st43{fill:none;stroke:#80D6FB;stroke-width:2;stroke-linecap:round;stroke-linejoin:round;stroke-miterlimit:10;}
	.st44{fill:none;stroke:#FFB236;stroke-width:2;stroke-miterlimit:10;}
	.st45{fill:none;stroke:#466089;stroke-width:2;stroke-linejoin:round;stroke-miterlimit:10;}
	.st46{fill:none;stroke:#FFB236;stroke-width:2;stroke-linecap:round;stroke-linejoin:round;stroke-miterlimit:10;}
	.st47{fill:none;stroke:#FCB98B;stroke-miterlimit:10;}
	.st48{fill:none;stroke:#98CA69;stroke-width:4;stroke-linecap:round;stroke-linejoin:round;stroke-miterlimit:10;}
	.st49{fill:none;stroke:#80D6FB;stroke-width:4;stroke-linejoin:round;stroke-miterlimit:10;}
	.st50{fill:none;stroke:#80D6FB;stroke-width:4;stroke-linecap:round;stroke-linejoin:round;stroke-miterlimit:10;}
	.st51{fill:none;stroke:#FFB0AA;stroke-width:4;stroke-linejoin:round;stroke-miterlimit:10;}
	.st52{fill:none;stroke:#FFB0AA;stroke-width:4;stroke-linecap:round;stroke-linejoin:round;stroke-miterlimit:10;}
	.st53{fill:none;stroke:#D3D3D3;stroke-width:4;stroke-miterlimit:10;}
	.st54{fill:none;stroke:#FFE352;stroke-width:2;stroke-linecap:round;stroke-linejoin:round;stroke-miterlimit:10;}
	.st55{fill:none;stroke:#FFB0AA;stroke-width:2;stroke-linecap:round;stroke-linejoin:round;stroke-miterlimit:10;}
	.st56{fill:none;stroke:#98CA69;stroke-width:2;stroke-linecap:round;stroke-linejoin:round;stroke-miterlimit:10;}
</style><g><path class="st11" d="M36,62H6c-2.209,0-4-1.791-4-4V30c0-2.209,1.791-4,4-4h30c2.209,0,4,1.791,4,4v28C40,60.209,38.209,62,36,62z   "/><g><line class="st25" x1="17" x2="36" y1="34" y2="34"/><line class="st25" x1="17" x2="29" y1="38" y2="38"/></g><g><line class="st25" x1="17" x2="36" y1="50" y2="50"/><line class="st25" x1="17" x2="29" y1="54" y2="54"/></g><path class="st8" d="M62,19.5L57.833,22l-3.142,7.55c-0.667,1.592-1.817,2.942-3.275,3.858L38.35,41.575l-1.783,1.117   c-0.6,0.375-1.267,0.55-1.925,0.55c-1.133,0-2.25-0.533-2.958-1.525c-1.192-1.667-0.767-3.992,0.942-5.133l4.917-3.275L37.7,33.2   c1.15-0.767,1.925-1.975,2.158-3.333L40.333,27v-2.5c0-0.92-0.746-1.667-1.667-1.667h-1.954c-0.355,0-0.7,0.113-0.986,0.323L32,26   H21l6.833-7.333L37,12.833L56.167,2H62V19.5z"/><polygon class="st2" points="62,2 53.667,2 47,5.333 59.5,24.5 62,22.833  "/><path class="st14" d="M13,41H7c-1.105,0-2-0.895-2-2v-6c0-1.105,0.895-2,2-2h6c1.105,0,2,0.895,2,2v6C15,40.105,14.105,41,13,41z"/><g><line class="st29" x1="13" x2="7" y1="36" y2="36"/><line class="st29" x1="10" x2="10" y1="39" y2="33"/></g><path class="st10" d="M13,57H7c-1.105,0-2-0.895-2-2v-6c0-1.105,0.895-2,2-2h6c1.105,0,2,0.895,2,2v6C15,56.105,14.105,57,13,57z"/><g><line class="st28" x1="13" x2="7" y1="52" y2="52"/></g></g></svg>