<svg width="91" height="91" xmlns="http://www.w3.org/2000/svg">

 <g>
  <title>background</title>
  <rect fill="none" id="canvas_background" height="402" width="582" y="-1" x="-1"/>
 </g>
 <g>
  <title>Layer 1</title>
  <path stroke="#ff0000" fill="#ff0000" id="svg_2" d="m36.6,43.5c-5.5,5.5 -10.9,11.3 -15.9,17.3c-5.1,6.2 -12,13.7 -12.7,21.9c-0.1,1.3 1.5,2.5 2.7,2c7.7,-3.1 13.1,-11.4 18.6,-17.4c6.7,-7.3 13.6,-14.4 20.9,-21c2.8,-2.5 1.9,-7.3 -1.2,-9.1c-12.7,-7.2 -22,-18.4 -29.3,-31c-4.7,-8.1 -17.5,-0.6 -12.5,7.3c7.6,12.2 17.4,22.3 29.4,30z" class="st0"/>
  <path stroke="#ff0000" fill="#ff0000" id="svg_3" d="m72.9,43.5c-5.6,5.5 -10.9,11.3 -15.9,17.3c-5,6.3 -12,13.7 -12.7,21.9c-0.1,1.3 1.5,2.5 2.7,2c7.7,-3.1 13.1,-11.4 18.6,-17.4c6.7,-7.3 13.6,-14.4 20.9,-21c2.8,-2.5 1.9,-7.3 -1.2,-9.1c-12.7,-7.2 -22,-18.4 -29.3,-31c-4.7,-8.1 -17.5,-0.6 -12.5,7.3c7.6,12.2 17.4,22.3 29.4,30z" class="st0"/>
 </g>
</svg>