<?xml version="1.0" ?><svg enable-background="new 0 0 64 64" id="Layer_1" version="1.1" viewBox="0 0 64 64" xml:space="preserve" xmlns="http://www.w3.org/2000/svg" xmlns:xlink="http://www.w3.org/1999/xlink"><path d="M51,56H11c-1.1,0-2-0.9-2-2V35c0-1.1,0.9-2,2-2h40c1.1,0,2,0.9,2,2v19C53,55.1,52.1,56,51,56z" fill="#D9DCE1"/><g><g><g><line fill="none" stroke="#D9DCE1" stroke-miterlimit="10" stroke-width="2" x1="25" x2="25" y1="22" y2="26"/><g><polygon fill="#D9DCE1" points="22,25.1 25,30.3 28,25.1     "/></g></g></g><g><g><line fill="none" stroke="#D9DCE1" stroke-miterlimit="10" stroke-width="2" x1="35" x2="35" y1="22" y2="26"/><g><polygon fill="#D9DCE1" points="32,25.1 35,30.3 38,25.1     "/></g></g></g></g><path d="M39.7,50.9l-5-2.8c-0.4-0.2-0.4-0.8,0-1.1l5-2.8c0.2-0.1,0.4-0.2,0.6-0.2H55v7H40.3  C40.1,51.1,39.9,51,39.7,50.9z" fill="#56AAFF"/><path d="M55.7,44H53v7h2.7c1.9,0,3.5-1.6,3.5-3.5l0,0C59.2,45.6,57.6,44,55.7,44z" fill="#0478ED"/><line fill="none" stroke="#FFFFFF" stroke-linecap="square" stroke-miterlimit="10" stroke-width="2" x1="16" x2="46" y1="40" y2="40"/><line fill="none" stroke="#FFFFFF" stroke-linecap="square" stroke-miterlimit="10" stroke-width="2" x1="16" x2="22" y1="46" y2="46"/><path d="M18.2,8h23.6C42.5,8,43,8.5,43,9.2v11.6c0,0.7-0.5,1.2-1.2,1.2H18.2c-0.7,0-1.2-0.5-1.2-1.2V9.2  C17,8.5,17.5,8,18.2,8z" fill="#56AAFF"/><circle cx="30" cy="15" fill="#0478ED" r="5"/><circle cx="21" cy="15" fill="#0478ED" r="1"/><circle cx="39" cy="15" fill="#0478ED" r="1"/></svg>