<?xml version="1.0" ?><svg viewBox="0 0 96 96" xmlns="http://www.w3.org/2000/svg"><title/><g id="Points"><path d="M80,50c0-3.31-6.7-5.44-14-5.9V32.5a.42.42,0,0,0-.1-.25,3.15,3.15,0,0,0,.1-.75C66,26.73,55,23,41,23s-25,3.73-25,8.5a3.64,3.64,0,0,0,.09.73.51.51,0,0,0-.09.27V48.6a2.82,2.82,0,0,0,.08.65.46.46,0,0,0-.08.25v8.1a2.82,2.82,0,0,0,.08.65.46.46,0,0,0-.08.25v8.1c0,4.82,11,8.6,25,8.6,1.73,0,3.5-.07,5.27-.2,1.48,3.06,9.21,4.86,16.73,4.86,8.36,0,17-2.21,17-5.93V68.5a.46.46,0,0,0,0-.21,2.23,2.23,0,0,0,0-.36V62.5a.46.46,0,0,0,0-.21,2.23,2.23,0,0,0,0-.36V56.5a.46.46,0,0,0,0-.21,2.23,2.23,0,0,0,0-.36V50.5a.65.65,0,0,0,0-.2C80,50.2,80,50.1,80,50ZM21.05,37.12l.41.17.83.34.54.2,1.18.4.58.17,1,.27.64.17c.45.11.91.22,1.39.32l.56.12,1.24.23.64.11,1.72.26.34,0,1.6.19.58.06c.64,0,1.3.11,2,.15h.14q1,.06,2,.09l.55,0c1.4,0,2.86,0,4.26,0l.55,0q1,0,2-.09h.14c.66,0,1.32-.1,2-.16l.58,0,1.6-.19.34,0L52,39.62l.63-.11,1.24-.23.57-.12c.48-.1.94-.21,1.39-.32l.64-.17,1-.27.58-.17,1.18-.4.54-.2.83-.34.41-.17a11.19,11.19,0,0,0,4-2.8v5.89a.37.37,0,0,0-.08.18c-.3,1.28-1.71,2.54-4.07,3.66l-.22,0-.86,0a35.12,35.12,0,0,0-8.38,1.48h0c-.38.12-.75.25-1.1.39l0,0c-.34.13-.67.27-1,.42l-.2.1-.62.33-.28.17-.17.11-.32,0-1.94.16,0,.49-.18-.49-1.91.1h-.54c-1.39,0-2.82,0-4.22,0h-.54l-1.91-.1,0,.5-.1-.5-1.94-.16-.57-.06c-.53,0-1-.11-1.57-.18l-.34,0-1.69-.25-.62-.11-1.22-.23-.55-.12-1.36-.31-.63-.16-.93-.27-.57-.17c-.4-.12-.78-.25-1.15-.38l-.51-.2c-.28-.1-.54-.21-.8-.32l-.39-.17c-2.55-1.15-4.07-2.47-4.38-3.81a.35.35,0,0,0-.08-.16V34.32A11.19,11.19,0,0,0,21.05,37.12ZM79,67.93c0,2.34-6.57,4.93-16,4.93-8.19,0-14.21-2-15.66-4a.48.48,0,0,0,.16-.36A.51.51,0,0,0,47,68s0,0,0-.07V64.15a8.36,8.36,0,0,0,2.5,1.6l.27.11.57.23.37.14.8.27.39.12.66.18.43.11.94.22.39.08.84.16.43.07,1.16.17.23,0,1.08.13.39,0,1.32.1h.1l1.32.06h.37c.95,0,1.93,0,2.88,0h.37l1.41-.07,1.33-.1.39,0L69,67.64l.23,0,1.16-.17.43-.07.84-.16.39-.08.94-.22.43-.11.74-.21.31-.09.8-.27.37-.14.57-.23.27-.11a8.36,8.36,0,0,0,2.5-1.6Zm0-6c0,2.34-6.57,4.93-16,4.93s-16-2.59-16-4.93V58.15a8.36,8.36,0,0,0,2.5,1.6l.27.11.57.23.37.14.8.27.39.12.66.18.43.11.94.22.39.08.84.16.43.07,1.16.17.23,0,1.08.13.39,0,1.32.1h.1l1.32.06h.37c.95,0,1.93,0,2.88,0h.37l1.41-.07,1.33-.1.39,0L69,61.64l.23,0,1.16-.17.43-.07.84-.16.39-.08.94-.22.43-.11.74-.21.31-.09.8-.27.37-.14.57-.23.27-.11a8.36,8.36,0,0,0,2.5-1.6ZM21.05,54.12l.41.17.83.34.54.2,1.18.4.58.17,1,.27.64.17c.45.11.91.22,1.39.32l.56.12,1.24.23.64.11,1.72.26.34,0,1.6.19.58.06c.64,0,1.3.11,2,.15h.14q1,.06,2,.09l.55,0c1.4,0,2.86,0,4.26,0l.55,0q1,0,2-.09H46V65c-1.7.12-3.38.18-5,.18-14.36,0-24-3.93-24-7.6V51.32A11.19,11.19,0,0,0,21.05,54.12ZM64.44,56h.37l1.41-.07,1.33-.1.39,0L69,55.64l.23,0,1.16-.17.43-.07.84-.16.39-.08.94-.22.43-.11.74-.21.31-.09.8-.27.37-.14.57-.23.27-.11a8.36,8.36,0,0,0,2.5-1.6v3.78c0,2.34-6.57,4.93-16,4.93s-16-2.59-16-4.93V52.15a8.36,8.36,0,0,0,2.5,1.6l.27.11.57.23.37.14.8.27.39.12.66.18.43.11.94.22.39.08.84.16.43.07,1.16.17.23,0,1.08.13.39,0,1.32.1h.1l1.32.06h3.25ZM79,50c0,2.37-6.21,4.9-15.51,5h-1C53.21,54.9,47,52.37,47,50a1.67,1.67,0,0,1,.06-.38s0-.11,0-.16l.09-.18a2.85,2.85,0,0,1,.45-.6l.15-.15.36-.3.05,0,.21-.16,0,0c2.35-1.6,7.2-2.75,12.69-3,1.43,0,2.91,0,4.32,0h0C73.67,45.47,79,47.8,79,50Zm-14-6h-.06L64,44a7.86,7.86,0,0,0,1-1ZM41,24c14.36,0,24,3.88,24,7.5S55.36,39,41,39s-24-3.88-24-7.5S26.64,24,41,24Zm0,25.2c1.76,0,3.51-.08,5.23-.2a2.44,2.44,0,0,0-.14.4A2.49,2.49,0,0,0,46,50v6c-1.67.12-3.35.18-5,.18-14.36,0-24-3.93-24-7.6V43.05C20,46.64,29.47,49.2,41,49.2ZM46,74c-1.68.12-3.36.18-5,.18-14.36,0-24-3.93-24-7.6V60.32a11.19,11.19,0,0,0,4.05,2.8l.41.17.83.34.54.2,1.18.4.58.17,1,.27.64.17c.45.11.91.22,1.39.32l.56.12,1.24.23.64.11,1.72.26.34,0,1.6.19.58.06c.64,0,1.3.11,2,.15h.14q1,.06,2,.09l.55,0c1.4,0,2.86,0,4.26,0l.55,0q1,0,2-.09H46V74Zm33-.09c0,2.34-6.57,4.93-16,4.93s-16-2.59-16-4.93V70.15a8.36,8.36,0,0,0,2.5,1.6l.27.11.57.23.37.14.8.27.39.12.66.18.43.11.94.22.39.08.84.16.43.07,1.16.17.23,0,1.08.13.39,0,1.32.1h.1l1.32.06h.37c.95,0,1.93,0,2.88,0h.37l1.41-.07,1.33-.1.39,0L69,73.64l.23,0,1.16-.17.43-.07.84-.16.39-.08.94-.22.43-.11.74-.21.31-.09.8-.27.37-.14.57-.23.27-.11a8.36,8.36,0,0,0,2.5-1.6Z"/></g></svg>