<svg width="50" height="50" xmlns="http://www.w3.org/2000/svg">

 <g>
  <title>background</title>
  <rect fill="none" id="canvas_background" height="402" width="582" y="-1" x="-1"/>
 </g>
 <g>
  <title>Layer 1</title>
  <path stroke="null" id="svg_5" fill="#cccccc" d="m22.510787,3.695441c1.409042,-3.106734 3.716737,-3.106734 5.125779,0l2.768869,6.102443c1.409042,3.106734 5.140362,6.054861 8.292023,6.552494l6.192131,0.979404c3.151661,0.497633 3.864385,2.884683 1.584033,5.301473l-4.4805,4.75031c-2.280352,2.418772 -3.7058,7.188908 -3.168067,10.602946l1.057237,6.707136c0.537733,3.414037 -1.327015,4.889092 -4.146923,3.277238l-5.537737,-3.166212c-2.818085,-1.611854 -7.43165,-1.611854 -10.249735,0l-5.537737,3.166212c-2.818085,1.611854 -4.684656,0.136799 -4.146923,-3.277238l1.057237,-6.707136c0.537733,-3.414037 -0.887715,-8.186156 -3.168067,-10.602946l-4.4805,-4.75031c-2.280352,-2.418772 -1.567628,-4.80384 1.584033,-5.301473l6.192131,-0.979404c3.151661,-0.497633 6.882981,-3.447742 8.292023,-6.552494l2.770691,-6.102443z"/>
 </g>
</svg>