<svg width="512" height="512" xmlns="http://www.w3.org/2000/svg" clip-rule="evenodd">

 <g>
  <title>background</title>
  <rect fill="none" id="canvas_background" height="402" width="582" y="-1" x="-1"/>
 </g>
 <g>
  <title>Layer 1</title>
  <path stroke="null" transform="rotate(-0.13455091416835785 258.0620422363335,255.9790802002104) " id="svg_2" fill="#ed1f24" fill-rule="nonzero" d="m540.789312,54.528426c-6.786404,-36.012451 -26.779093,-64.369599 -52.170478,-73.993081c-46.02491,-17.492929 -230.559072,-17.492929 -230.559072,-17.492929c0,0 -184.534163,0 -230.560225,17.492929c-25.385622,9.623481 -45.384074,37.98063 -52.170478,73.993081c-12.328019,65.270319 -12.328019,201.453943 -12.328019,201.453943c0,0 0,136.183624 12.328019,201.447404c6.786404,36.012451 26.784856,64.376138 52.170478,73.999619c46.026062,17.486391 230.560225,17.486391 230.560225,17.486391c0,0 184.534163,0 230.559072,-17.486391c25.391384,-9.623481 45.384074,-37.987169 52.170478,-73.999619c12.333781,-65.26378 12.333781,-201.447404 12.333781,-201.447404c0,0 0,-136.183624 -12.333781,-201.453943z"/>
  <path stroke="null" id="svg_3" fill="#fff" fill-rule="nonzero" d="m166.423402,369.805154l239.913096,-115.173604l-239.913096,-115.173604l0,230.347208z"/>
 </g>
</svg>