<svg width="32" height="32" xmlns="http://www.w3.org/2000/svg">
 <title/>

 <g>
  <title>background</title>
  <rect fill="none" id="canvas_background" height="402" width="582" y="-1" x="-1"/>
 </g>
 <g>
  <title>Layer 1</title>
  <path fill="#007fff" id="svg_1" d="m29.12,6.05l-3.12,-3.17a3,3 0 0 0 -4.24,0l-15.47,15.41a3.06,3.06 0 0 0 -0.72,1.18l-3.49,10.45l10.46,-3.49a3.15,3.15 0 0 0 1.17,-0.72l15.41,-15.42a3,3 0 0 0 0,-4.24zm-21,13.28l8.75,-8.74l1.58,1.58l-8.78,8.75l-1.55,-1.59zm8.57,-11.75l1.59,-1.58l4.58,4.58l-1.58,1.59l-4.59,-4.59zm-22.75,20.77l3.72,3.71l7.59,-5.31l-11.31,1.6zm19.75,-6.29l-1.59,-1.59l8.75,-8.74l1.58,1.58l-8.74,8.75zm15,-15l-1.88,1.88l-5.57,-2.77l1.88,-1.88a1,1 0 0 1 0.71,-0.29a1,1 0 0 1 0.71,0.29l3.17,3.18a1,1 0 0 1 0.29,0.7a1,1 0 0 1 -0.29,0.71l0.98,-1.82z"/>
 </g>
</svg>