<svg width="8.4666665" height="8.4666669" xmlns="http://www.w3.org/2000/svg">

 <g>
  <title>background</title>
  <rect fill="none" id="canvas_background" height="402" width="582" y="-1" x="-1"/>
 </g>
 <g>
  <title>Layer 1</title>
  <path clip-rule="nonzero" fill="#7f7f7f" fill-rule="nonzero" stroke-width="2" stroke-linecap="round" stroke-linejoin="round" stroke-miterlimit="4" stroke-dashoffset="0" id="rect919" d="m1.322917,0.264578a0.26461,0.26461 0 0 0 -0.264583,0.264583l0,0.793234l6.35,0l0,-0.793234a0.26461,0.26461 0 0 0 -0.264583,-0.264583l-5.820833,0zm-0.264583,1.586984l0,1.588016a0.26461,0.26461 0 0 0 0.097152,0.204639l2.019514,1.652611l0,2.640666a0.26461,0.26461 0 0 0 0.382924,0.236678l1.5875,-0.79375a0.26461,0.26461 0 0 0 0.146243,-0.236678l0,-1.846916l2.019514,-1.652611a0.26461,0.26461 0 0 0 0.097152,-0.204639l0,-1.588016l-6.35,0z"/>
 </g>
</svg>