<svg width="256" height="256" xmlns="http://www.w3.org/2000/svg" clip-rule="evenodd">

 <g>
  <title>background</title>
  <rect fill="none" id="canvas_background" height="402" width="582" y="-1" x="-1"/>
 </g>
 <g>
  <title>Layer 1</title>
  <path id="svg_1" fill="#999999" fill-rule="nonzero" d="m191.33,62.954c1.527,0.181 1.928,0.415 2.664,0.866c3.049,1.868 3.769,6.697 1.107,9.358c-1.111,1.112 -2.657,1.695 -4.242,1.758l-96.868,0c-1.537,-0.061 -1.955,-0.262 -2.724,-0.654c-3.327,-1.695 -4.297,-6.811 -1.519,-9.589c1.111,-1.111 2.657,-1.695 4.243,-1.757l96.868,0c0.157,0.006 0.314,0.012 0.471,0.018z"/>
  <path id="svg_2" fill="#b2b2b2" fill-rule="nonzero" d="m136.145,94.956c5.011,0.395 7.919,8.167 2.686,11.188c-0.635,0.367 -1.337,0.616 -2.062,0.73c-0.31,0.049 -0.624,0.066 -0.938,0.074l-41.84,0c-5.159,-0.135 -8.337,-8.115 -3,-11.196c0.635,-0.367 1.337,-0.615 2.061,-0.73c0.31,-0.049 0.624,-0.066 0.939,-0.074l41.84,0c0.105,0.003 0.209,0.006 0.314,0.008z"/>
  <path id="svg_3" fill="#b2b2b2" fill-rule="nonzero" d="m191.128,94.954c4.424,0.299 7.487,6.236 4.249,9.942c-1.123,1.285 -2.793,2.013 -4.518,2.052l-30.277,0c-4.361,-0.098 -7.649,-5.68 -4.854,-9.527c1.11,-1.526 2.945,-2.43 4.854,-2.473l30.277,0c0.09,0.002 0.179,0.004 0.269,0.006z"/>
  <path id="svg_4" fill="#e5e5e5" fill-rule="nonzero" d="m191.128,155.586c4.461,0.3 7.443,6.286 4.249,9.941c-1.123,1.286 -2.793,2.014 -4.518,2.053l-30.277,0c-4.548,-0.102 -7.823,-6.165 -4.518,-9.948c1.123,-1.285 2.793,-2.014 4.518,-2.052l30.277,0c0.09,0.002 0.179,0.004 0.269,0.006z"/>
  <path id="svg_5" fill="#b2b2b2" fill-rule="nonzero" d="m136.281,155.588c4.251,0.335 7.268,5.763 4.54,9.518c-1.108,1.525 -2.951,2.424 -4.854,2.474l-41.976,0c-5.115,-0.134 -8.274,-8.152 -3,-11.196c0.635,-0.367 1.337,-0.616 2.061,-0.73c0.31,-0.05 0.624,-0.066 0.939,-0.074l41.976,0c0.105,0.002 0.209,0.005 0.314,0.008z"/>
  <path id="svg_6" fill="#e5e5e5" fill-rule="nonzero" d="m191.26,124.725c4.371,0.44 7.291,6.181 4.181,9.86c-1.12,1.325 -2.225,2.048 -4.582,2.126l-68.019,0c-4.558,-0.152 -7.78,-6.091 -4.582,-9.873c1.12,-1.325 2.224,-2.048 4.582,-2.127l68.019,0c0.133,0.005 0.267,0.009 0.401,0.014z"/>
  <path id="svg_7" fill="#999999" fill-rule="nonzero" d="m100.706,199.292c-24.359,0.84 -48.585,2.928 -72.448,6.347c-1.556,0.222 -3.733,0.54 -3.733,0.54c-11.662,1.38 -23.352,-8.08 -23.607,-20.551c-0.289,-42.436 -0.002,-84.769 0.003,-127.122l0.002,-14.221c0,0 0.128,-4.078 1.299,-7.251c3.154,-8.542 12.267,-14.419 21.588,-13.636c66.139,6.435 133.708,6.73 200.217,0.695c2.744,-0.249 5.486,-0.518 8.227,-0.776c0,0 0.702,-0.094 2.21,-0.076c10.783,0.265 20.396,9.542 20.618,20.719c0.309,47.21 0.003,94.335 -0.011,141.532c0,0 -0.134,4.181 -1.363,7.421c-3.307,8.722 -12.862,14.558 -22.376,13.365c-26.207,-3.649 -52.741,-5.999 -79.307,-6.943l0.001,0.044l0,5.878c15.996,2.139 31.752,6.107 46.937,11.438c0,0 4.243,1.819 4.555,5.332c0.319,3.603 -3.267,7.006 -6.871,6.463c-1.716,-0.259 -1.996,-0.591 -2.79,-0.868c-42.618,-14.74 -89.902,-16.767 -133.209,0.508c0,0 -3.387,0.814 -5.473,-0.53c-3.702,-2.386 -3.549,-8.8 1.549,-10.825c14.217,-5.646 28.976,-9.52 43.979,-11.576l0,-5.82l0.003,-0.087zm133.305,-164.054c-6.231,0.092 -13.359,1.223 -20.194,1.774c-60.569,4.884 -121.882,4.784 -182.565,-0.838c-4.004,-0.371 -8.257,-1.521 -11.787,-0.521c-3.694,1.046 -6.463,4.625 -6.541,8.533c-0.312,47.102 -0.328,94.181 -0.007,141.278c0.103,5.025 4.817,9.434 10.116,8.807c17.904,-2.367 35.924,-4.614 54.005,-5.87c50.801,-3.53 101.921,-1.466 152.431,5.499c6.12,0.844 13.448,-0.767 13.602,-8.306c0.316,-47.083 0.321,-94.277 0.012,-141.476c-0.092,-4.603 -3.973,-8.697 -8.718,-8.876c-0.118,-0.003 -0.236,-0.004 -0.354,-0.004z"/>
  <path id="svg_8" fill="#b2b2b2" d="m80.029,64.248c0,-0.778 -0.309,-1.523 -0.858,-2.073c-0.55,-0.55 -1.296,-0.859 -2.073,-0.859c-2.612,0 -6.414,0 -9.025,0c-0.778,0 -1.523,0.309 -2.073,0.859c-0.55,0.55 -0.859,1.295 -0.859,2.073c0,2.698 0,6.678 0,9.376c0,0.777 0.309,1.523 0.859,2.073c0.55,0.549 1.295,0.858 2.073,0.858c2.611,0 6.413,0 9.025,0c0.777,0 1.523,-0.309 2.073,-0.858c0.549,-0.55 0.858,-1.296 0.858,-2.073c0,-2.698 0,-6.678 0,-9.376z"/>
  <path id="svg_9" fill="#b2b2b2" d="m80.029,96.26c0,-0.777 -0.309,-1.523 -0.858,-2.073c-0.55,-0.55 -1.296,-0.858 -2.073,-0.858c-2.612,0 -6.414,0 -9.025,0c-0.778,0 -1.523,0.308 -2.073,0.858c-0.55,0.55 -0.859,1.296 -0.859,2.073c0,2.698 0,6.678 0,9.376c0,0.778 0.309,1.523 0.859,2.073c0.55,0.55 1.295,0.859 2.073,0.859c2.611,0 6.413,0 9.025,0c0.777,0 1.523,-0.309 2.073,-0.859c0.549,-0.55 0.858,-1.295 0.858,-2.073c0,-2.698 0,-6.678 0,-9.376z"/>
  <path id="svg_10" fill="#b2b2b2" d="m80.029,156.892c0,-0.778 -0.309,-1.523 -0.858,-2.073c-0.55,-0.55 -1.296,-0.859 -2.073,-0.859c-2.612,0 -6.414,0 -9.025,0c-0.778,0 -1.523,0.309 -2.073,0.859c-0.55,0.55 -0.859,1.295 -0.859,2.073c0,2.698 0,6.678 0,9.376c0,0.777 0.309,1.523 0.859,2.073c0.55,0.549 1.295,0.858 2.073,0.858c2.611,0 6.413,0 9.025,0c0.777,0 1.523,-0.309 2.073,-0.858c0.549,-0.55 0.858,-1.296 0.858,-2.073c0,-2.698 0,-6.678 0,-9.376z"/>
  <path id="svg_11" fill="#e5e5e5" d="m108.879,126.023c0,-0.777 -0.309,-1.523 -0.859,-2.072c-0.55,-0.55 -1.295,-0.859 -2.073,-0.859c-2.612,0 -6.413,0 -9.025,0c-0.777,0 -1.523,0.309 -2.073,0.859c-0.55,0.549 -0.858,1.295 -0.858,2.072c0,2.698 0,6.679 0,9.376c0,0.778 0.308,1.524 0.858,2.073c0.55,0.55 1.296,0.859 2.073,0.859c2.612,0 6.413,0 9.025,0c0.778,0 1.523,-0.309 2.073,-0.859c0.55,-0.549 0.859,-1.295 0.859,-2.073c0,-2.697 0,-6.678 0,-9.376z"/>
 </g>
</svg>