<?xml version="1.0" ?><svg id="Layer_1" style="enable-background:new 0 0 64 64;" version="1.1" viewBox="0 0 64 64" xml:space="preserve" xmlns="http://www.w3.org/2000/svg" xmlns:xlink="http://www.w3.org/1999/xlink"><style type="text/css">
	.st0{fill:#56AAFF;}
	.st1{fill:#FFFFFF;}
	.st2{fill:#0478ED;}
	.st3{fill:none;stroke:#D9DCE1;stroke-width:4;stroke-linecap:round;stroke-miterlimit:10;}
	.st4{fill:#D9DCE1;}
	.st5{fill:none;stroke:#D9DCE1;stroke-width:3;stroke-linecap:round;stroke-linejoin:round;stroke-miterlimit:10;}
	.st6{fill:none;stroke:#FFFFFF;stroke-width:2;stroke-miterlimit:10;}
	.st7{fill:none;stroke:#D9DCE1;stroke-width:2;stroke-linecap:square;stroke-miterlimit:10;}
	.st8{fill:none;stroke:#D9DCE1;stroke-width:2;stroke-linecap:square;stroke-miterlimit:10;stroke-dasharray:0.1022,6.1323;}
	.st9{fill:none;stroke:#56AAFF;stroke-width:2;stroke-miterlimit:10;}
	.st10{fill:none;stroke:#0478ED;stroke-width:4;stroke-linecap:round;stroke-miterlimit:10;}
	.st11{fill:none;stroke:#0478ED;stroke-width:3;stroke-miterlimit:10;}
	.st12{fill:none;stroke:#0478ED;stroke-width:2;stroke-miterlimit:10;}
	.st13{fill:none;stroke:#D9DCE1;stroke-width:2;stroke-miterlimit:10;}
	.st14{fill-rule:evenodd;clip-rule:evenodd;fill:#56AAFF;}
	.st15{fill:none;stroke:#0478ED;stroke-width:6;stroke-linecap:round;stroke-miterlimit:10;}
	.st16{fill-rule:evenodd;clip-rule:evenodd;fill:#0478ED;}
	.st17{fill:none;stroke:#0478ED;stroke-width:3;stroke-linecap:round;stroke-miterlimit:10;}
	.st18{fill:none;stroke:#D9DCE1;stroke-width:4;stroke-miterlimit:10;}
	.st19{fill:none;stroke:#56AAFF;stroke-width:9.5204;stroke-linecap:round;stroke-miterlimit:10;}
	.st20{fill:none;stroke:#D9DCE1;stroke-width:9.5204;stroke-linecap:round;stroke-miterlimit:10;}
	.st21{fill:none;stroke:#0478ED;stroke-width:2;stroke-miterlimit:10;stroke-dasharray:2,2;}
	.st22{fill:none;stroke:#D9DCE1;stroke-width:16.2382;stroke-linecap:round;stroke-miterlimit:10;}
	.st23{fill:none;stroke:#D9DCE1;stroke-width:15.9437;stroke-linecap:square;stroke-miterlimit:10;}
	.st24{fill:none;stroke:#77B5D1;stroke-width:17.7335;stroke-linecap:round;stroke-miterlimit:10;}
	.st25{fill:none;stroke:#56AAFF;stroke-width:17.9367;stroke-linecap:square;stroke-miterlimit:10;}
</style><g><g><circle class="st2" cx="39" cy="18" r="9"/></g><g><path class="st1" d="M39.7,22.3v1.4h-1.3v-1.4c-0.9-0.1-1.8-0.6-2.5-1.3l1-1.2c0.7,0.7,1.6,1,2.2,1c0.6,0,1-0.3,1-0.8    c0-0.5-0.4-0.8-1.4-1.1c-1.4-0.4-2.7-0.9-2.7-2.5c0-1.3,0.8-2.3,2.3-2.4v-1.5h1.3V14c0.8,0.2,1.6,0.5,2.1,1l-1,1.2    c-0.7-0.5-1.4-0.7-1.9-0.7c-0.6,0-1,0.3-1,0.7c0,0.5,0.4,0.7,1.3,1c1.7,0.5,2.8,0.9,2.8,2.6C42.1,21.2,41.2,22.1,39.7,22.3z"/></g></g><rect class="st4" height="13" width="46" x="9" y="42"/><polygon class="st0" points="49,30 15,30 9,42 55,42 "/><line class="st10" x1="19" x2="45" y1="36" y2="36"/><path class="st4" d="M38.2,36c1.7-1.9,2.8-4.4,2.8-7.1c0-5.8-4.7-10.5-10.5-10.5S20,23.1,20,28.9c0,2.8,1.1,5.3,2.8,7.1H38.2z"/><g><path class="st1" d="M31.3,33.9v1.6h-1.5v-1.6c-1.1-0.2-2.1-0.6-3-1.5l1.2-1.4c0.8,0.8,1.8,1.1,2.6,1.1c0.7,0,1.2-0.4,1.2-0.9   c0-0.6-0.5-0.9-1.7-1.3c-1.7-0.5-3.1-1.1-3.1-2.9c0-1.5,1-2.6,2.7-2.8v-1.7h1.5v1.8c0.9,0.2,1.8,0.6,2.5,1.1l-1.2,1.5   c-0.8-0.6-1.6-0.8-2.3-0.8c-0.8,0-1.2,0.3-1.2,0.8c0,0.5,0.5,0.8,1.6,1.2c2,0.6,3.3,1.1,3.3,3C34.1,32.6,33,33.7,31.3,33.9z"/></g></svg>