<svg width="30.000000000000004" height="30.000000000000004" xmlns="http://www.w3.org/2000/svg">

 <g>
  <title>background</title>
  <rect fill="none" id="canvas_background" height="402" width="582" y="-1" x="-1"/>
 </g>
 <g>
  <title>Layer 1</title>
  <path stroke="#56aaff" fill="#56aaff" id="svg_1" d="m27.3,13.9l-4.3,-3.7l0,-4.2c0,-0.6 -0.4,-1 -1,-1l-2,0c-0.6,0 -1,0.4 -1,1l0,0.9l-3.3,-2.8c-0.4,-0.3 -1,-0.3 -1.4,0l-11.6,9.8c-0.5,0.4 -0.2,1.1 0.4,1.1l1.9,0l0,11c0,0.6 0.4,1 1,1l6,0l0,-6c0,-1.7 1.3,-3 3,-3s3,1.3 3,3l0,6l6,0c0.6,0 1,-0.4 1,-1l0,-11l1.9,0c0.6,0 0.9,-0.7 0.4,-1.1z" class="st7"/>
 </g>
</svg>