<svg width="24" height="24" xmlns="http://www.w3.org/2000/svg">

 <g>
  <title>background</title>
  <rect fill="none" id="canvas_background" height="402" width="582" y="-1" x="-1"/>
 </g>
 <g>
  <title>Layer 1</title>
  <path fill="#ffffff" id="svg_1" d="m13.763157,20l-3.5,0c-0.7,0 -1.3,0.8 -0.9,1.5c0.6,0.9 1.6,1.5 2.7,1.5s2.1,-0.6 2.6,-1.5c0.4,-0.7 -0.1,-1.5 -0.9,-1.5z"/>
  <path fill="#ffffff" id="svg_2" d="m21.8,16.763157l-0.4,-0.5c-1.6,-2.1 -2.4,-4.6 -2.4,-7.2l0,-0.7c0,-3.6 -2.6,-6.8 -6.2,-7.2c-4.2,-0.5 -7.8,2.8 -7.8,6.9l0,1c0,2.6 -0.8,5.1 -2.4,7.2l-0.4,0.5c-0.2,0.2 -0.3,0.6 -0.2,0.8c0.3,0.9 1.1,1.5 2,1.5l16,0c0.9,0 1.7,-0.6 1.9,-1.5c0.1,-0.3 0,-0.6 -0.1,-0.8z"/>
 </g>
</svg>